FILE "King of Fighters '95, The (USA) (Track 01).bin" BINARY
  TRACK 01 MODE2/2352
    INDEX 01 00:00:00
  TRACK 02 AUDIO
    INDEX 00 06:43:15
    INDEX 01 06:45:15
  TRACK 03 AUDIO
    INDEX 00 07:36:61
    INDEX 01 07:38:61
  TRACK 04 AUDIO
    INDEX 00 08:13:65
    INDEX 01 08:15:65
  TRACK 05 AUDIO
    INDEX 00 09:15:69
    INDEX 01 09:17:69
  TRACK 06 AUDIO
    INDEX 00 09:22:32
    INDEX 01 09:24:32
  TRACK 07 AUDIO
    INDEX 00 09:31:02
    INDEX 01 09:33:02
  TRACK 08 AUDIO
    INDEX 00 09:37:40
    INDEX 01 09:39:40
  TRACK 09 AUDIO
    INDEX 00 09:47:18
    INDEX 01 09:49:18
  TRACK 10 AUDIO
    INDEX 00 12:19:24
    INDEX 01 12:21:24
  TRACK 11 AUDIO
    INDEX 00 13:44:36
    INDEX 01 13:46:36
  TRACK 12 AUDIO
    INDEX 00 16:04:37
    INDEX 01 16:06:37
  TRACK 13 AUDIO
    INDEX 00 17:33:04
    INDEX 01 17:35:04
  TRACK 14 AUDIO
    INDEX 00 20:05:07
    INDEX 01 20:07:07
  TRACK 15 AUDIO
    INDEX 00 21:26:14
    INDEX 01 21:28:14
  TRACK 16 AUDIO
    INDEX 00 21:32:52
    INDEX 01 21:34:52
  TRACK 17 AUDIO
    INDEX 00 24:04:56
    INDEX 01 24:06:56
  TRACK 18 AUDIO
    INDEX 00 25:36:50
    INDEX 01 25:38:50
  TRACK 19 AUDIO
    INDEX 00 25:43:13
    INDEX 01 25:45:13
  TRACK 20 AUDIO
    INDEX 00 28:17:21
    INDEX 01 28:19:21
  TRACK 21 AUDIO
    INDEX 00 29:28:58
    INDEX 01 29:30:58
  TRACK 22 AUDIO
    INDEX 00 32:00:63
    INDEX 01 32:02:63
  TRACK 23 AUDIO
    INDEX 00 33:39:40
    INDEX 01 33:41:40
  TRACK 24 AUDIO
    INDEX 00 36:11:42
    INDEX 01 36:13:42
  TRACK 25 AUDIO
    INDEX 00 37:43:44
    INDEX 01 37:45:44
  TRACK 26 AUDIO
    INDEX 00 40:15:48
    INDEX 01 40:17:48
  TRACK 27 AUDIO
    INDEX 00 41:36:31
    INDEX 01 41:38:31
  TRACK 28 AUDIO
    INDEX 00 43:38:34
    INDEX 01 43:40:34
  TRACK 29 AUDIO
    INDEX 00 44:40:38
    INDEX 01 44:42:38
  TRACK 30 AUDIO
    INDEX 00 47:17:13
    INDEX 01 47:19:13
  TRACK 31 AUDIO
    INDEX 00 48:52:30
    INDEX 01 48:54:30
  TRACK 32 AUDIO
    INDEX 00 50:54:34
    INDEX 01 50:56:34
  TRACK 33 AUDIO
    INDEX 00 51:00:72
    INDEX 01 51:02:72
  TRACK 34 AUDIO
    INDEX 00 53:31:73
    INDEX 01 53:33:73
  TRACK 35 AUDIO
    INDEX 00 55:04:04
    INDEX 01 55:06:04
  TRACK 36 AUDIO
    INDEX 00 56:06:53
    INDEX 01 56:08:53
  TRACK 37 AUDIO
    INDEX 00 57:08:57
    INDEX 01 57:10:57
  TRACK 38 AUDIO
    INDEX 00 58:11:32
    INDEX 01 58:13:32
  TRACK 39 AUDIO
    INDEX 00 59:13:36
    INDEX 01 59:15:36
  TRACK 40 AUDIO
    INDEX 00 61:15:37
    INDEX 01 61:17:37
  TRACK 41 AUDIO
    INDEX 00 63:09:22
    INDEX 01 63:11:22
  TRACK 42 AUDIO
    INDEX 00 65:18:39
    INDEX 01 65:20:39
REM LEADOUT 68:20:39
